<svg width="12" height="12" viewBox="0 0 12 12" fill="none" xmlns="http://www.w3.org/2000/svg">
<path d="M11.4161 4.8276L7.94483 4.3231L6.39307 1.1772C6.35069 1.09107 6.28096 1.02134 6.19483 0.97896C5.97881 0.872319 5.71631 0.961187 5.60831 1.1772L4.05655 4.3231L0.585253 4.8276C0.489549 4.84127 0.402049 4.88638 0.335057 4.95474C0.254067 5.03799 0.209438 5.14998 0.210976 5.26611C0.212514 5.38224 0.260094 5.49301 0.34326 5.57408L2.85479 8.02271L2.26143 11.4803C2.24751 11.5608 2.25641 11.6435 2.28712 11.7191C2.31783 11.7947 2.36911 11.8603 2.43515 11.9082C2.5012 11.9562 2.57936 11.9847 2.66078 11.9905C2.7422 11.9963 2.82362 11.9792 2.8958 11.9411L6.00069 10.3087L9.10558 11.9411C9.19034 11.9862 9.28878 12.0012 9.38312 11.9848C9.62101 11.9438 9.78097 11.7182 9.73995 11.4803L9.14659 8.02271L11.6581 5.57408C11.7265 5.50709 11.7716 5.41959 11.7853 5.32388C11.8222 5.08463 11.6554 4.86314 11.4161 4.8276Z" fill="#FFE718"/>
</svg>
