<svg width="232" height="26" viewBox="0 0 232 26" fill="none" xmlns="http://www.w3.org/2000/svg">
<path fill-rule="evenodd" clip-rule="evenodd" d="M218.829 0.417845C215.388 1.67315 213.373 4.9047 213.978 8.19797C214.546 11.2963 216.367 12.72 222.017 14.4854C226.398 15.8539 227.842 16.8773 227.842 18.6118C227.842 20.3477 227.531 20.9191 226.222 21.5896C224.665 22.3867 220.983 22.3726 219.402 21.5631C218.735 21.2218 217.721 20.3092 217.148 19.5349L216.107 18.1271L214.363 19.1251L212.618 20.1226L213.836 21.8989C215.509 24.339 218.31 25.7345 221.997 25.9639C227.596 26.3124 231.24 24.1241 231.865 20.038C232.539 15.6318 230.809 13.6947 224.111 11.3573C218.033 9.23619 216.631 7.68031 218.595 5.23541C220.44 2.93825 224.619 3.19309 226.843 5.73818L228.036 7.10275L229.607 6.19413C230.471 5.69426 231.178 5.16825 231.178 5.0245C231.178 4.37398 228.353 1.6285 226.968 0.932962C225.012 -0.048992 220.833 -0.313629 218.829 0.417845ZM0.0712013 1.09378C0.186482 1.54283 1.74814 7.21964 3.54148 13.7085L6.80232 25.5065L9.37778 25.6118L11.9532 25.7167L14.6918 16.3549C16.1979 11.2055 17.4837 6.92487 17.5494 6.84138C17.8377 6.47546 18.2221 7.59827 20.788 16.2954L23.5054 25.5065L26.0834 25.6118L28.6619 25.7174L32.1766 13.0878L35.6914 0.458502L33.6645 0.347783C32.5495 0.287159 31.5387 0.396064 31.4179 0.589913C31.297 0.784126 30.0304 5.20237 28.6033 10.4087C27.1762 15.6151 25.9222 19.8758 25.8169 19.8772C25.7117 19.8787 24.6434 16.5716 23.4431 12.5287C22.2429 8.48584 20.9251 4.06759 20.5144 2.71101L19.7675 0.244325L17.7173 0.351414L15.6671 0.458502L12.9367 9.71537C11.435 14.8066 10.1158 19.2173 10.0053 19.5168C9.7277 20.2689 9.31551 19.01 6.52765 8.89858L4.1505 0.276995H2.00613C-0.0325877 0.276995 -0.127852 0.31729 0.0712013 1.09378ZM39.1676 12.9825V25.688H41.2063H43.245V12.9825V0.276995H41.2063H39.1676V12.9825ZM48.8052 12.9825V25.688H56.2187H63.6323V23.7604V21.8331L58.9061 21.8622C56.307 21.8782 53.8883 21.8281 53.5313 21.7507C52.9316 21.6208 52.8826 20.8065 52.8826 10.9434V0.276995H50.8439H48.8052V12.9825ZM67.339 12.9825V25.7689L73.9185 25.6259C80.0384 25.4931 80.6415 25.4179 82.5538 24.5507C85.4785 23.2235 87.161 21.627 88.5525 18.8568C89.6786 16.6159 89.7646 16.1846 89.7613 12.8075C89.7576 9.36506 89.6901 9.04887 88.498 6.8893C87.0153 4.20372 85.3784 2.69576 82.5538 1.41432C80.6415 0.547079 80.0384 0.471933 73.9185 0.33907L67.339 0.196043V12.9825ZM94.3984 12.9825V25.688L100.422 25.6858C106.833 25.6836 108.391 25.4404 110.375 24.1307C113.936 21.7809 114.332 16.2631 111.129 13.6243C109.87 12.5868 109.686 12.0768 110.464 11.7842C111.322 11.4618 112.191 9.13963 112.191 7.16882C112.191 4.01749 110.213 1.5421 106.966 0.630208C106.275 0.435995 103.164 0.276995 100.054 0.276995H94.3984V12.9825ZM117.751 12.9825V25.688H125.74H133.729L133.617 23.7822L133.505 21.8763L128.315 21.8244C125.461 21.7958 122.834 21.7547 122.477 21.7337C121.908 21.6996 121.829 21.2737 121.829 18.2462V14.7976H127.203H132.578V12.801V10.8044H127.203H121.829V7.35577V3.90714H127.574H133.32V2.09207V0.276995H125.535H117.751V12.9825ZM137.768 12.9825V25.688H139.806H141.845V20.9688V16.2496L144.532 16.2518L147.22 16.254L150.007 20.8802L152.794 25.5065L155.091 25.6143L157.388 25.7221L154.375 20.7332C152.673 17.914 151.542 15.6859 151.775 15.6096C153.174 15.153 154.761 13.6417 155.653 11.9189C157.453 8.43865 156.788 5.03502 153.791 2.38865C152.958 1.65318 151.639 0.878146 150.86 0.666146C150.081 0.454509 146.817 0.280261 143.606 0.279172L137.768 0.276995V12.9825ZM161.12 12.9524V25.688H163.159H165.198V20.9528V16.2177L167.878 16.3244L170.557 16.4311L173.337 21.0596L176.116 25.688H178.256C179.433 25.688 180.395 25.5885 180.395 25.4669C180.395 25.3453 179.144 23.213 177.615 20.7285C174.822 16.1894 174.515 15.5236 175.214 15.5236C175.423 15.5236 176.342 14.8477 177.258 14.0211C181.489 10.2018 180.483 3.88935 175.206 1.13734C174.117 0.569586 172.881 0.44144 167.514 0.33907L161.12 0.217097V12.9524ZM184.102 12.9825V25.688H186.141H188.18V12.9825V0.276995H186.141H184.102V12.9825ZM193.74 12.9825V25.688H201.524H209.308V23.7477V21.8074L204.211 21.8524C201.408 21.8774 198.823 21.8331 198.466 21.754C197.905 21.6295 197.817 21.151 197.817 18.2037V14.7976H203.007H208.196V12.801V10.8044H203.007H197.817V7.35577V3.90714H203.563H209.308V2.09207V0.276995H201.524H193.74V12.9825ZM81.315 4.94137C86.7588 7.66107 87.8008 15.2895 83.31 19.5472C81.2135 21.5351 79.8776 21.9333 74.9802 22.0299L71.4165 22.1003V13.2457C71.4165 8.37585 71.4991 4.31008 71.6003 4.21134C71.7012 4.11224 73.5912 4.06759 75.8001 4.11188C79.0128 4.17613 80.1155 4.34203 81.315 4.94137ZM106.946 4.82447C108.369 5.99737 108.72 7.48936 107.927 8.99152C107.055 10.6432 105.35 11.2175 101.696 11.0908L98.6612 10.9859L98.5552 7.44653L98.4492 3.90714H102.141C105.548 3.90714 105.918 3.97793 106.946 4.82447ZM149.989 4.37143C151.265 5.00417 152.595 7.06463 152.593 8.40779C152.591 9.91321 151.348 11.8314 150.02 12.3784C149.173 12.7269 143.8 12.9201 142.123 12.6623C141.97 12.6387 141.845 10.6592 141.845 8.26331V3.90714L145.459 3.91258C147.604 3.91549 149.445 4.10244 149.989 4.37143ZM173.653 4.6426C176.692 6.45695 176.407 11.1827 173.184 12.4293C172.563 12.6692 170.554 12.8493 168.719 12.8286L165.383 12.7915L165.279 8.34934L165.175 3.90714L168.8 3.90859C171.783 3.90968 172.643 4.04 173.653 4.6426ZM107.119 14.84C108.452 15.508 109.208 16.7114 109.217 18.1794C109.236 21.2625 107.835 22.0579 102.387 22.0579H98.4759V18.2462V14.4346H102.392C104.546 14.4346 106.673 14.6172 107.119 14.84Z" fill="white"/>
</svg>
