<svg width="89" height="90" viewBox="0 0 89 90" fill="none" xmlns="http://www.w3.org/2000/svg">
<path fill-rule="evenodd" clip-rule="evenodd" d="M70.4808 4.7952C66.2556 9.00485 65.6676 9.65688 65.6676 10.1345C65.6676 10.8649 66.4111 11.6056 67.1442 11.6056C67.6236 11.6056 68.2781 11.0198 72.5034 6.81035C76.7286 2.6007 77.3165 1.94868 77.3165 1.47109C77.3165 0.740645 76.5731 0 75.8399 0C75.3606 0 74.7061 0.585728 70.4808 4.7952ZM44.5129 9.18087C43.5851 9.62892 42.7077 10.7721 42.298 12.0666C42.0303 12.9129 41.9235 13.0371 41.1808 13.3643C40.1031 13.8393 39.2429 14.5048 38.8256 15.1867C38.3704 15.9304 38.3766 17.6206 38.8394 18.9897C39.8572 21.9996 43.1835 26.3096 45.7781 27.9803C47.0428 28.7946 48.0955 29.0221 50.4888 28.9981C51.9975 28.9829 52.5325 29.051 53.3664 29.3645C54.326 29.7253 56.8858 31.2942 57.1135 31.6612C57.17 31.7523 57.239 34.4185 57.2665 37.586C57.3034 41.7997 57.3966 43.9112 57.6142 45.4551C58.1375 49.1676 58.7184 51.8448 59.4741 54.0274C59.8794 55.1979 59.9523 55.157 58.0828 54.8099L56.9402 54.5978L56.0977 53.3273C53.4287 49.3021 49.7662 46.8921 44.6283 45.78C42.9682 45.4208 37.9474 45.3543 36.1356 45.6677L35.108 45.8454L34.3831 44.859C33.4202 43.5483 31.2282 41.2952 29.9804 40.3333C27.4653 38.3947 24.234 36.881 20.856 36.0592C18.2757 35.4314 17.353 35.3628 10.0707 35.2566C7.01286 35.212 4.18942 35.126 3.79636 35.0655C2.69077 34.8956 2.09279 35.4922 1.62331 37.2338C0.218029 42.4485 -0.327351 48.8518 0.194555 54.0087C0.752642 59.5224 2.00102 63.2745 6.44542 72.7985C9.0846 78.4535 14.8644 89.137 15.5997 89.7194C16.2538 90.2372 16.7845 90.0867 18.6323 88.86C21.9496 86.6574 25.5574 82.6048 27.0996 79.3486C27.3859 78.7442 27.6953 78.2496 27.7872 78.2496C27.8792 78.2496 28.9144 78.5604 30.0877 78.9404C38.627 81.7059 48 82.0829 58.8841 80.0991C64.2851 79.1147 70.5542 77.251 76.1693 74.9601C79.2695 73.6953 83.4557 71.6158 83.6572 71.2403C84.2305 70.1731 84.4959 61.3552 84.0549 58.0278C82.9223 49.4833 80.1539 43.0606 74.2915 35.3767C70.8119 30.8163 70.2088 29.9168 69.0215 27.5192C68.351 26.1652 67.1566 23.3166 66.3673 21.1889C63.9436 14.6555 63.1951 13.6073 59.776 11.9593C54.822 9.57159 46.7481 8.10173 44.5129 9.18087ZM48.3754 11.7893C51.7656 12.2059 56.3653 13.4693 58.6379 14.608C61.0674 15.8254 61.5609 16.5618 63.534 21.9146C66.195 29.134 67.1269 30.8787 70.9411 35.7794C77.0345 43.6091 79.685 49.1893 80.9658 56.8848C81.2216 58.4209 81.2877 59.796 81.2877 63.5668C81.2877 66.178 81.2269 68.5987 81.1525 68.9461C81.0274 69.5313 80.9044 69.6309 79.4758 70.3022C71.5978 74.0056 62.6598 76.7218 54.813 77.7973C45.133 79.124 36.7918 78.3867 29.1209 75.5263C26.5722 74.5759 26.0706 74.5887 25.5708 75.6174C25.4079 75.9529 24.9209 76.9791 24.4888 77.8979C23.155 80.734 21.0378 83.3715 18.469 85.3968C17.7004 86.0028 17.0136 86.463 16.9428 86.4193C16.8103 86.3376 15.1203 83.3205 13.3027 79.9201C12.7342 78.8562 11.2636 75.9285 10.035 73.4139C3.87013 60.7969 2.85456 57.1758 3.06265 48.5552C3.1592 44.5574 3.39359 42.4853 4.07999 39.5644L4.43122 38.0697L10.1191 38.1132C13.2473 38.1371 16.482 38.2405 17.3071 38.3432C22.3574 38.9716 26.6647 40.9748 29.941 44.2187C31.298 45.5622 31.4595 45.8106 33.2617 49.3236C34.3035 51.3546 35.3541 53.1942 35.5959 53.4119C35.8377 53.6296 36.2359 53.8076 36.4807 53.8076C37.0149 53.8076 37.9574 52.9278 37.9574 52.429C37.9574 52.2362 37.5659 51.3013 37.0876 50.3514C36.6093 49.4013 36.2584 48.5837 36.308 48.5342C36.3576 48.4848 38.0397 48.4479 40.0459 48.4521C44.2794 48.4611 45.3899 48.6765 48.1061 50.015C50.7234 51.305 52.6588 53.1543 54.1998 55.8378C54.5073 56.3731 54.9298 56.9177 55.1388 57.0481C55.8468 57.49 58.2955 57.9196 60.1658 57.9298L61.9887 57.9398L62.5044 57.3655C63.2013 56.5897 63.173 56.1246 62.2459 53.0892C60.5991 47.6978 60.1711 44.169 60.1738 36.002L60.1754 30.5933L59.5439 29.9822C57.7859 28.2813 55.1702 26.7353 53.3121 26.2991C52.6601 26.1459 51.3446 26.0286 50.2625 26.0272C49.0604 26.0255 48.1474 25.9363 47.7834 25.7847C45.7424 24.9352 41.5585 19.329 41.4369 17.281C41.4048 16.7377 41.4849 16.5847 41.9768 16.2492C42.2947 16.0325 42.8789 15.8008 43.2751 15.734C44.1098 15.5935 44.6155 15.1597 44.7508 14.4674C45.0706 12.8343 45.2431 12.3608 45.6492 12.0012C46.1588 11.55 46.3236 11.5371 48.3754 11.7893ZM78.2424 14.6506C73.6395 16.486 70.5056 17.8298 70.3498 18.035C69.7591 18.813 70.2307 20.0762 71.2023 20.3192C71.4836 20.3895 73.941 19.4943 79.1839 17.4118C87.0344 14.2936 87.5534 14.0248 87.5534 13.0768C87.5534 12.559 86.6752 11.6052 86.1992 11.6061C86.0218 11.6064 82.4413 12.9764 78.2424 14.6506ZM81.023 25.5088C78.1593 25.8802 75.7134 26.1878 75.5877 26.1923C75.4619 26.1967 75.1641 26.3947 74.9259 26.6321C73.9807 27.5736 74.6173 29.0139 75.9785 29.0139C77.083 29.0139 87.9221 27.6112 88.2762 27.4223C89.0581 27.0054 89.1892 25.8799 88.5321 25.2254C87.9567 24.652 87.4941 24.6694 81.023 25.5088ZM28.1538 58.6353C27.6183 59.1688 27.5911 59.9265 28.0852 60.5521C28.5379 61.1256 31.8356 63.6018 34.0745 65.0493C37.7451 67.4226 42.8157 69.5109 46.2528 70.065C48.2014 70.3791 50.6833 70.4155 52.1772 70.1519C54.4662 69.748 57.7025 68.3986 58.0835 67.6892C58.3823 67.1328 58.3431 66.3294 57.9986 65.9501C57.419 65.3122 56.8443 65.3445 55.2417 66.1058C54.4235 66.4944 53.2378 66.9443 52.6068 67.1054C51.2234 67.4587 48.4735 67.4916 46.6058 67.1773C42.4193 66.4726 36.8102 63.7329 32.0994 60.0918C29.8454 58.3496 29.6124 58.2036 29.0854 58.2036C28.7915 58.2036 28.4092 58.3809 28.1538 58.6353Z" fill="url(#paint0_linear_28_344)"/>
<defs>
<linearGradient id="paint0_linear_28_344" x1="22.0245" y1="-33.1132" x2="102.276" y2="-1.76225" gradientUnits="userSpaceOnUse">
<stop stop-color="#2388FF"/>
<stop offset="1" stop-color="#DC3097"/>
</linearGradient>
</defs>
</svg>
