<svg width="85" height="90" viewBox="0 0 85 90" fill="none" xmlns="http://www.w3.org/2000/svg">
<path fill-rule="evenodd" clip-rule="evenodd" d="M40.1839 0.125948C37.3062 0.441037 34.0471 1.05637 31.7426 1.7198C17.0086 5.96176 8.8892 17.3968 7.93698 35.2468L7.81166 37.5954L3.9716 46.2383C0.565936 53.9032 0.120642 55.0194 0.0366558 56.1024C-0.0509001 57.2307 -0.0144507 57.3889 0.515958 58.1795C0.884971 58.7298 1.41125 59.1995 1.989 59.4947C2.84558 59.9323 3.07575 59.9567 6.86151 60.0112C10.7713 60.0676 10.8367 60.0751 10.9455 60.4809C11.0063 60.7079 11.0572 63.6871 11.0586 67.1014C11.0614 73.7699 11.1437 74.5177 12.0767 76.359C12.6825 77.5544 14.1262 79.1349 15.2966 79.8834C17.1642 81.078 17.2995 81.0915 27.4417 81.0915H36.614V85.0267C36.614 88.8825 36.6228 88.9721 37.054 89.4734C37.6577 90.1752 38.5765 90.1752 39.1802 89.4734C39.6174 88.9652 39.6202 88.931 39.6202 84.0288C39.6202 78.7754 39.6689 79.1258 38.8144 78.2317C38.7926 78.209 34.1245 78.1454 28.4409 78.0908L18.107 77.9914L17.1971 77.5266C16.084 76.958 15.2943 76.0854 14.65 74.712L14.1613 73.67L14.0674 66.6089L13.9735 59.5477L13.4098 58.6434C12.4647 57.1273 12.1562 57.0418 7.62283 57.0418C3.61161 57.0418 2.98199 56.9428 2.98199 56.3121C2.98199 56.1246 4.75641 51.9634 6.92502 47.0652C10.6461 38.6607 10.8684 38.0944 10.8707 37.012C10.8746 35.3045 11.2271 31.2568 11.5441 29.2813C13.8852 14.6899 22.6981 5.98806 37.6474 3.50681C43.1645 2.59104 50.0054 2.80073 55.121 4.0421C68.4455 7.27548 78.7066 17.4598 80.7636 29.4925C81.4782 33.6712 81.2403 38.5465 80.0846 43.412C78.1296 51.6427 72.5275 61.8894 65.5383 70.0183C64.6999 70.9933 63.9365 71.9868 63.842 72.226C63.5611 72.9361 63.6269 88.605 63.9131 89.1707C64.2528 89.8424 65.0056 90.1645 65.657 89.9168C66.6829 89.5268 66.6637 89.6918 66.6701 81.2048L66.6761 73.3329L68.0564 71.7165C74.8111 63.8066 80.3381 53.8453 82.7139 45.2988C85.6521 34.7299 84.3561 25.0247 78.924 16.9198C73.1158 8.25381 63.8956 2.43284 52.8663 0.469032C51.0872 0.15244 49.6805 0.0554902 46.1963 0.0094576C43.7679 -0.0226713 41.0623 0.0297493 40.1839 0.125948ZM41.4942 14.856C36.7378 15.6577 32.1823 18.0563 28.7791 21.551C26.5235 23.8673 24.892 26.349 23.8472 29.0536C20.9092 36.6582 21.9664 44.8774 26.7048 51.2678C32.9987 59.7566 43.7605 62.8395 53.8058 59.0318C59.9439 56.705 65.2559 50.9663 67.2133 44.5473C68.0304 41.8674 68.2304 40.5541 68.2426 37.7833C68.2644 32.8963 67.0797 28.8565 64.4746 24.9349C60.8266 19.4431 55.0722 15.7928 48.451 14.7705C46.815 14.5178 43.2391 14.5618 41.4942 14.856ZM50.2359 18.2211C57.1087 20.0201 62.5584 25.3167 64.4964 32.0811C66.9076 40.4966 63.5647 49.5464 56.2698 54.3522C53.1688 56.3951 50.0736 57.3849 46.2705 57.5499C43.3551 57.6763 41.4061 57.4338 38.9833 56.6426C33.694 54.9151 29.4789 51.1318 27.0383 45.9209C24.3169 40.1108 24.65 33.2439 27.9285 27.574C30.8327 22.551 35.8647 19.023 41.7809 17.8617C43.9018 17.4453 47.9254 17.6163 50.2359 18.2211ZM36.4939 29.0649C35.3674 29.2088 33.8797 29.9664 33.0763 30.8051C31.7287 32.2118 30.9807 34.7444 31.6231 35.7248C32.0419 36.364 32.6986 36.5973 33.3951 36.3546C33.9755 36.1522 34.2466 35.662 34.4465 34.4537C34.6707 33.0992 36.0056 32.0213 37.4595 32.0213C38.8035 32.0213 40.0375 32.9256 40.3008 34.1029C40.6778 35.7892 40.778 36.0045 41.3165 36.283C42.2215 36.7508 43.1815 36.3085 43.4231 35.312C43.561 34.7429 43.2245 33.0444 42.8141 32.2404C42.3249 31.281 40.9822 29.9908 40.0341 29.5684C38.972 29.0955 37.6855 28.9125 36.4939 29.0649ZM52.1845 29.0688C50.9281 29.2535 49.7861 29.8179 48.8814 30.7014C47.9023 31.6574 47.4178 32.5857 47.1545 34.0095C46.9127 35.318 47.1309 35.9497 47.9617 36.348C48.4303 36.5725 48.5859 36.5673 49.1292 36.3082C49.5445 36.1101 49.7961 35.8326 49.874 35.4871C50.2105 33.9943 50.3648 33.5622 50.7229 33.1069C52.4289 30.9379 56.1273 32.2419 56.1604 35.0241C56.1786 36.5682 58.1836 36.9729 58.9594 35.5891C59.2016 35.1568 59.2072 34.9185 58.9988 33.8981C58.336 30.6525 55.4286 28.5922 52.1845 29.0688ZM39.7395 41.085C39.3252 41.4108 39.2444 41.6243 39.2444 42.3931C39.2444 45.5079 42.038 48.2111 45.2569 48.2111C48.4404 48.2111 51.2693 45.5074 51.2693 42.4649C51.2693 40.3128 48.7016 40.0364 48.3514 42.1509C48.1742 43.2208 47.9106 43.7972 47.3569 44.3254C45.5013 46.0955 42.7089 45.0767 42.2319 42.4557C41.9476 40.894 40.791 40.258 39.7395 41.085Z" fill="url(#paint0_linear_28_345)"/>
<defs>
<linearGradient id="paint0_linear_28_345" x1="20.8593" y1="-33.1132" x2="97.9163" y2="-4.60301" gradientUnits="userSpaceOnUse">
<stop stop-color="#2388FF"/>
<stop offset="1" stop-color="#DC3097"/>
</linearGradient>
</defs>
</svg>
