<svg width="90" height="83" viewBox="0 0 90 83" fill="none" xmlns="http://www.w3.org/2000/svg">
<path fill-rule="evenodd" clip-rule="evenodd" d="M29.6493 0.0399629C23.5486 0.648726 18.8403 2.28505 14.0843 5.44956C7.86621 9.58682 3.04754 16.3269 1.09717 23.615C-1.92486 34.9071 1.40165 46.9143 9.77265 54.9302C13.1001 58.1163 16.2205 60.0582 21.249 62.072L21.6714 62.2411V71.6968C21.6714 81.4445 21.7206 82.1471 22.4296 82.5265C22.6496 82.6442 33.6775 82.7102 53.1014 82.7102C83.1797 82.7102 83.4331 82.707 83.8054 82.3348C84.1513 81.9888 84.1808 81.7092 84.1808 78.7682V75.577H86.4428C88.7889 75.577 89.6368 75.3668 89.8834 74.7239C89.9474 74.5568 90 71.6065 90 68.1677C90 62.2943 89.9782 61.8886 89.6416 61.4722C89.3019 61.0521 89.1502 61.0259 86.7321 60.9677L84.1808 60.9061V57.7296C84.1808 54.8031 84.1511 54.5232 83.8054 54.1774C83.4367 53.8087 83.1797 53.802 69.4451 53.802C61.7534 53.802 55.4603 53.7532 55.4603 53.6933C55.4603 53.6336 55.9526 52.979 56.5543 52.2385C62.7134 44.6602 65.1475 34.9011 63.2321 25.4661C62.365 21.1954 60.0708 16.1593 57.3699 12.5983C56.109 10.9359 53.3244 8.12339 51.6121 6.78291C47.4294 3.5082 42.2402 1.2267 37.0641 0.386674C35.4062 0.117677 30.9562 -0.0904996 29.6493 0.0399629ZM36.3791 3.23207C46.894 4.90387 55.7283 12.2177 59.2938 22.2025C60.421 25.3596 60.8963 28.2186 60.9008 31.8676C60.9099 39.4967 58.114 46.4822 52.8561 51.9667L51.0968 53.802H36.935C28.0562 53.802 22.6449 53.8705 22.4296 53.9858C21.8903 54.2745 21.6714 55.2082 21.6714 57.2216C21.6714 59.4136 21.8991 59.3565 18.966 57.8978C16.0638 56.454 13.9298 54.8968 11.4341 52.4009C7.21315 48.1799 4.70676 43.5458 3.43048 37.6021C2.87766 35.027 2.82679 29.4665 3.33174 26.7709C4.97557 17.9942 10.6459 10.2979 18.4508 6.24998C21.5325 4.65158 24.0665 3.80141 27.4906 3.21706C29.5525 2.86509 34.1196 2.87278 36.3791 3.23207ZM17.5931 16.2763C16.5509 16.7921 16.0399 17.6338 16.0399 18.8343C16.0399 19.9677 16.5884 20.893 17.5454 21.3737C19.4871 22.3492 21.6714 21.0048 21.6714 18.8343C21.6714 17.6271 21.1531 16.7803 20.1034 16.2721C19.092 15.7826 18.5889 15.7833 17.5931 16.2763ZM44.1258 16.0775C42.8859 16.4488 42.0468 17.7414 42.1756 19.0817C42.4401 21.8353 45.7473 22.6473 47.4318 20.3722C48.3815 19.0897 47.8075 17.0814 46.2693 16.3057C45.3814 15.858 44.9962 15.8169 44.1258 16.0775ZM23.5533 32.3977C22.668 33.283 22.8899 34.0952 24.3379 35.2703C27.5546 37.8809 33.1711 38.4386 37.4395 36.5715C38.67 36.0334 40.3801 34.6968 40.6395 34.0706C40.9294 33.3708 40.6129 32.5402 39.9395 32.2332C39.33 31.9556 38.8517 32.1114 37.8848 32.9025C35.7982 34.6095 31.989 35.2405 28.9786 34.3777C27.8944 34.067 26.3256 33.2775 25.9907 32.8739C25.6489 32.4619 24.785 32.0269 24.3088 32.0269C24.0971 32.0269 23.7571 32.1938 23.5533 32.3977ZM81.3651 68.2561V79.8945H53.02H24.6749V68.2561V56.6177H53.02H81.3651V68.2561ZM29.4438 60.0163C29.1042 60.3916 29.0862 60.8053 29.0862 68.2561C29.0862 75.7069 29.1042 76.1207 29.4438 76.4959C29.8973 76.9971 30.8633 77.0144 31.4587 76.5321L31.9019 76.1734V68.2923C31.9019 60.8059 31.8841 60.3918 31.5443 60.0163C31.3039 59.7505 30.9598 59.6212 30.494 59.6212C30.0283 59.6212 29.6842 59.7505 29.4438 60.0163ZM36.7213 60.0556C36.3159 60.4873 36.3132 60.5402 36.3132 68.2824V76.0747L36.7476 76.4829C37.3006 77.0024 38.2512 77.0179 38.7536 76.5156C39.1172 76.152 39.129 75.89 39.129 68.2561C39.129 60.6223 39.1172 60.3602 38.7536 59.9966C38.2308 59.4738 37.2411 59.5025 36.7213 60.0556ZM44.0096 59.9966C43.646 60.3602 43.6342 60.6223 43.6342 68.2561C43.6342 75.89 43.646 76.152 44.0096 76.5156C44.5324 77.0384 45.522 77.0097 46.0418 76.4567C46.4473 76.0249 46.4499 75.972 46.4499 68.2298V60.4376L46.0155 60.0293C45.4625 59.5099 44.5119 59.4943 44.0096 59.9966ZM51.2188 60.0163C50.8791 60.3918 50.8612 60.8059 50.8612 68.2923V76.1734L51.3044 76.5321C51.8999 77.0144 52.8658 76.9971 53.3194 76.4959C53.6589 76.1207 53.677 75.7069 53.677 68.2561C53.677 60.8053 53.6589 60.3916 53.3194 60.0163C53.0789 59.7505 52.7348 59.6212 52.2691 59.6212C51.8034 59.6212 51.4593 59.7505 51.2188 60.0163ZM58.4774 60.1158C58.0982 60.5979 58.0883 60.8053 58.0883 68.2561C58.0883 75.7069 58.0982 75.9144 58.4774 76.3964C58.8902 76.9213 59.6848 77.0544 60.3336 76.7073C61.0208 76.3395 61.0917 75.5487 61.0917 68.2561C61.0917 60.9635 61.0208 60.1727 60.3336 59.805C59.6848 59.4579 58.8902 59.591 58.4774 60.1158ZM65.792 60.0321C65.4195 60.4317 65.4092 60.6525 65.4092 68.2561C65.4092 75.8597 65.4195 76.0805 65.792 76.4801C66.3129 77.0393 67.28 77.0281 67.8169 76.4567C68.2223 76.0249 68.225 75.972 68.225 68.2325C68.225 60.6527 68.2146 60.4317 67.8422 60.0321C67.3277 59.4798 66.3065 59.4798 65.792 60.0321ZM73.2437 59.8558C73.0738 59.985 72.8465 60.3283 72.7386 60.6189C72.4626 61.3621 72.4728 75.1337 72.7498 75.9284C73.1255 77.0059 74.4716 77.2676 75.1567 76.3964C75.5359 75.9144 75.5459 75.7069 75.5459 68.2561C75.5459 60.8053 75.5359 60.5979 75.1567 60.1158C74.7261 59.5682 73.79 59.441 73.2437 59.8558ZM87.1843 68.2561V72.5736H85.7764H84.3685V68.2561V63.9386H85.7764H87.1843V68.2561Z" fill="url(#paint0_linear_28_347)"/>
<defs>
<linearGradient id="paint0_linear_28_347" x1="22.2837" y1="-30.4311" x2="101.262" y2="3.53663" gradientUnits="userSpaceOnUse">
<stop stop-color="#2388FF"/>
<stop offset="1" stop-color="#DC3097"/>
</linearGradient>
</defs>
</svg>
