<svg width="85" height="90" viewBox="0 0 85 90" fill="none" xmlns="http://www.w3.org/2000/svg">
<path fill-rule="evenodd" clip-rule="evenodd" d="M40.1839 0.125948C37.3062 0.441037 34.0471 1.05637 31.7426 1.7198C17.0086 5.96176 8.8892 17.3968 7.93698 35.2468L7.81166 37.5954L3.9716 46.2383C0.565936 53.9032 0.120642 55.0194 0.0366559 56.1024C-0.0509001 57.2307 -0.0144507 57.3889 0.515958 58.1795C0.884971 58.7298 1.41125 59.1995 1.989 59.4947C2.84558 59.9323 3.07575 59.9567 6.86151 60.0112C10.7713 60.0676 10.8367 60.0751 10.9455 60.4809C11.0063 60.7079 11.0572 63.6871 11.0586 67.1014C11.0614 73.7699 11.1437 74.5177 12.0767 76.359C12.6825 77.5544 14.1262 79.1349 15.2966 79.8834C17.1642 81.078 17.2995 81.0915 27.4417 81.0915H36.614V85.0267C36.614 88.8825 36.6228 88.9721 37.054 89.4734C37.6577 90.1752 38.5765 90.1752 39.1802 89.4734C39.6174 88.9652 39.6202 88.931 39.6202 84.0288C39.6202 78.7754 39.6689 79.1258 38.8144 78.2317C38.7926 78.209 34.1245 78.1454 28.4409 78.0908L18.107 77.9914L17.1971 77.5266C16.084 76.958 15.2943 76.0854 14.65 74.712L14.1613 73.67L13.9735 59.5477L13.4098 58.6434C12.4647 57.1273 12.1562 57.0418 7.62283 57.0418C3.61161 57.0418 2.98199 56.9428 2.98199 56.3121C2.98199 56.1246 4.75641 51.9634 6.92502 47.0652C10.6461 38.6607 10.8684 38.0944 10.8707 37.012C10.8746 35.3045 11.2271 31.2568 11.5441 29.2813C13.8852 14.6899 22.6981 5.98806 37.6474 3.50681C43.1645 2.59104 50.0054 2.80073 55.121 4.0421C68.4455 7.27548 78.7066 17.4598 80.7636 29.4925C81.4782 33.6712 81.2403 38.5465 80.0846 43.412C78.1296 51.6427 72.5275 61.8894 65.5383 70.0183C64.6999 70.9933 63.9365 71.9868 63.842 72.226C63.5611 72.9361 63.6269 88.605 63.9131 89.1707C64.2528 89.8424 65.0056 90.1645 65.657 89.9168C66.6829 89.5268 66.6637 89.6918 66.6701 81.2048L66.6761 73.3329L68.0564 71.7165C74.8111 63.8066 80.3381 53.8453 82.7139 45.2988C85.6521 34.7299 84.3561 25.0247 78.924 16.9198C73.1158 8.25381 63.8956 2.43284 52.8663 0.469032C51.0872 0.15244 49.6805 0.0554902 46.1963 0.0094576C43.7679 -0.0226713 41.0623 0.0297493 40.1839 0.125948Z" fill="url(#paint0_linear_28_346)"/>
<path d="M65.7942 29.7812C68.0873 34.5721 68.6123 40.0203 67.2763 45.1613C65.9403 50.3023 62.8295 54.8047 58.4943 57.8714C54.1592 60.9381 48.8794 62.3715 43.5895 61.9177C38.2996 61.464 33.3407 59.1524 29.5906 55.3921C27.5013 53.3044 25.8438 50.8251 24.713 48.0961C23.5821 45.367 23 42.4416 23 39.4873C23 36.533 23.5821 33.6076 24.713 30.8785C25.8438 28.1494 27.5013 25.6702 29.5906 23.5825C38.0352 15.1116 51.595 14.8249 60.4364 22.678L65.728 17.3838C65.9736 17.138 66.3067 17 66.654 17C67.0014 17 67.3345 17.138 67.5801 17.3838C67.8257 17.6295 67.9636 17.9628 67.9636 18.3103C67.9636 18.6578 67.8257 18.991 67.5801 19.2368L53.91 32.9356L46.4136 40.4138C46.168 40.6595 45.8349 40.7976 45.4876 40.7976C45.1402 40.7976 44.8071 40.6595 44.5615 40.4138C44.3159 40.1681 44.1779 39.8348 44.1779 39.4873C44.1779 39.1398 44.3159 38.8065 44.5615 38.5608L51.0217 32.0753C49.3323 30.8132 47.2629 30.1658 45.1558 30.2399C43.0487 30.3141 41.0299 31.1054 39.4333 32.4831C37.8367 33.8609 36.7577 35.7425 36.3749 37.8169C35.9921 39.8913 36.3283 42.0343 37.3279 43.8916C38.3275 45.749 39.9307 47.2094 41.8724 48.0315C43.8141 48.8536 45.9781 48.9882 48.0066 48.4129C50.0351 47.8377 51.8067 46.5871 53.0285 44.8678C54.2502 43.1486 54.849 41.0637 54.7258 38.9579C54.7169 38.784 54.7424 38.6101 54.8008 38.4461C54.8592 38.2821 54.9493 38.1312 55.066 38.0021C55.1828 37.873 55.3238 37.7682 55.4811 37.6938C55.6384 37.6193 55.8088 37.5766 55.9826 37.5681C56.1553 37.5562 56.3286 37.5788 56.4924 37.6347C56.6562 37.6907 56.8072 37.7787 56.9366 37.8938C57.0659 38.0088 57.171 38.1485 57.2458 38.3047C57.3205 38.4609 57.3633 38.6305 57.3717 38.8034C57.5274 41.5273 56.7439 44.2221 55.1521 46.4373C53.5602 48.6526 51.2566 50.254 48.6263 50.9738C45.9959 51.6936 43.1984 51.4883 40.7012 50.3921C38.204 49.2959 36.1587 47.3753 34.907 44.9513C33.6554 42.5274 33.2733 39.747 33.8247 37.0751C34.3762 34.4032 35.8276 32.0016 37.9365 30.2718C40.0453 28.5421 42.6837 27.589 45.4106 27.572C48.1375 27.5549 50.7876 28.475 52.9179 30.1782L58.5402 24.5531C54.843 21.3316 50.0827 19.5971 45.1808 19.6853C40.2788 19.7736 35.584 21.6783 32.005 25.0307C28.426 28.3831 26.2175 32.9449 25.807 37.8328C25.3965 42.7208 26.8131 47.5873 29.7828 51.4902C32.7524 55.3932 37.0638 58.055 41.8823 58.9604C46.7008 59.8658 51.6836 58.9504 55.8663 56.3914C60.049 53.8324 63.1339 49.8118 64.5239 45.1079C65.914 40.404 65.5102 35.3514 63.3909 30.9282C63.2388 30.6094 63.2196 30.2432 63.3375 29.9101C63.4553 29.5771 63.7006 29.3046 64.0193 29.1525C64.338 29.0003 64.704 28.9811 65.0368 29.099C65.3697 29.2169 65.6421 29.4623 65.7942 29.7812Z" fill="url(#paint1_linear_28_346)"/>
<defs>
<linearGradient id="paint0_linear_28_346" x1="20.8593" y1="-33.1132" x2="97.9163" y2="-4.60302" gradientUnits="userSpaceOnUse">
<stop stop-color="#2388FF"/>
<stop offset="1" stop-color="#DC3097"/>
</linearGradient>
<linearGradient id="paint1_linear_28_346" x1="20.8593" y1="-33.1132" x2="97.9163" y2="-4.60302" gradientUnits="userSpaceOnUse">
<stop stop-color="#2388FF"/>
<stop offset="1" stop-color="#DC3097"/>
</linearGradient>
</defs>
</svg>
