<svg width="62" height="90" viewBox="0 0 62 90" fill="none" xmlns="http://www.w3.org/2000/svg">
<path fill-rule="evenodd" clip-rule="evenodd" d="M29.2844 0.190861C27.6903 0.71216 26.2155 2.04366 25.6093 3.50914L25.2672 4.33643L14.7914 4.38678L4.31563 4.43731L3.32128 4.9035C2.10984 5.47145 1.08626 6.46282 0.516897 7.61985L0.0903163 8.48657L0.0450695 46.9889L0 85.4911L0.366546 86.4712C0.812141 87.6618 2.02252 88.9569 3.25931 89.5662L4.13958 90H30.988H57.8363L58.7166 89.5662C59.9539 88.9565 61.1638 87.6618 61.6097 86.4701L61.9768 85.4891L61.9312 46.9878L61.8856 8.48657L61.4786 7.66034C60.9125 6.51106 59.831 5.45508 58.6559 4.90403L57.6603 4.43731L47.185 4.38467L36.7097 4.3322L36.2946 3.37886C35.8006 2.24384 34.5027 0.96163 33.3149 0.43505C32.2799 -0.0239257 30.3066 -0.143467 29.2844 0.190861ZM32.4923 3.37622C32.901 3.61583 33.2818 3.93273 33.3385 4.08044C33.4279 4.31354 33.1156 4.34928 30.988 4.34928C28.8725 4.34928 28.5484 4.31266 28.6362 4.08361C28.6922 3.93749 29.0661 3.62129 29.467 3.38098C30.4381 2.79876 31.5042 2.79718 32.4923 3.37622ZM18.25 7.56228C18.0639 8.01122 17.7949 9.03463 17.6949 9.67494L17.5918 10.3351H12.1578H6.72371L6.26791 10.8769L5.8121 11.4184V47.1528C5.8121 85.3164 5.77636 83.6721 6.61227 83.9928C6.9848 84.1358 54.9911 84.1358 55.3636 83.9928C56.1995 83.6721 56.1638 85.3164 56.1638 47.1528V11.4184L55.708 10.8769L55.2522 10.3351H49.8181H44.3842L44.272 9.67494C44.1417 8.90752 43.9315 8.08886 43.7521 7.65031C43.6336 7.36017 44.0132 7.34221 50.294 7.34221C57.7275 7.34221 57.7451 7.34485 58.5846 8.57442L58.9807 9.15487V47.2187V85.2824L58.581 85.8807C58.3613 86.2097 57.9057 86.6175 57.5687 86.7866C56.9937 87.0757 55.3559 87.0946 30.8999 87.0942C5.21035 87.0939 4.8357 87.0889 4.27004 86.7439C3.95437 86.5514 3.53888 86.1359 3.34645 85.8203C3.00015 85.2525 2.99645 84.8539 2.99593 47.2007L2.99522 9.15487L3.39135 8.57442C4.2306 7.34485 4.24891 7.34221 11.6779 7.34221C16.94 7.34221 18.3222 7.38851 18.25 7.56228ZM39.6851 7.58763C40.5354 7.94291 41.1907 8.89167 41.3159 9.94888C41.4527 11.1027 40.924 12.2617 39.9983 12.8372L39.3506 13.2401H30.988H22.6253L21.9776 12.8372C20.5634 11.9578 20.1986 9.8061 21.2336 8.44889C22.0757 7.34503 21.9722 7.35665 30.9496 7.34908C37.5305 7.34362 39.2108 7.38939 39.6851 7.58763ZM19.1465 14.218C19.5865 14.7076 20.3512 15.3215 20.8458 15.5825L21.7451 16.0569H30.988H40.2308L41.1301 15.5825C41.6247 15.3215 42.3895 14.7076 42.8294 14.218L43.6298 13.3281H48.4003H53.1709V47.3067V81.2853H30.988H8.80503V47.3067V13.3281H13.5756H18.3462L19.1465 14.218ZM21.1648 21.0386C20.991 21.2123 19.9905 23.3539 18.9414 25.7973L17.034 30.2399L16.5726 29.9401C16.3189 29.7753 15.5759 29.2855 14.9215 28.8517C13.5117 27.9172 12.8092 27.8412 12.1941 28.5561C11.7996 29.0147 11.6971 29.5855 11.9099 30.1401C12.0804 30.5843 17.175 33.9265 17.6817 33.9265C18.5775 33.9265 18.955 33.2881 21.3072 27.7957C22.5648 24.8595 23.5936 22.2755 23.5936 22.0535C23.5936 21.8317 23.4294 21.4414 23.2287 21.1863C22.7797 20.6155 21.6674 20.5359 21.1648 21.0386ZM30.0168 26.9591C29.4795 27.4965 29.4341 28.426 29.916 29.0214L30.2524 29.4371L37.9705 29.4878C42.2153 29.5158 45.8688 29.494 46.0891 29.4394C47.1215 29.1836 47.5329 27.8813 46.8486 27.0359L46.5121 26.6202L38.4831 26.5711L30.4542 26.5218L30.0168 26.9591ZM21.1648 40.2286C20.991 40.4023 19.9905 42.5439 18.9414 44.9873L17.034 49.4299L16.5726 49.1311C16.3189 48.9669 15.5972 48.4891 14.9689 48.0695C13.6166 47.1667 12.89 47.0789 12.2302 47.7389C11.7422 48.2267 11.6656 48.976 12.0478 49.5216C12.1853 49.7178 13.3962 50.6068 14.7388 51.4975C17.336 53.22 17.9243 53.4158 18.603 52.7836C19.0402 52.3762 23.5936 41.8173 23.5936 41.2108C23.5936 40.159 21.9137 39.4796 21.1648 40.2286ZM30.3718 45.9255C29.4614 46.4234 29.288 47.5593 30.0117 48.2829L30.4438 48.7151H38.3823H46.3208L46.7528 48.2829C47.1781 47.8577 47.3107 47.1349 47.0757 46.5224C46.7829 45.7595 46.3704 45.7218 38.347 45.7275C33.1702 45.7312 30.6108 45.7947 30.3718 45.9255ZM21.1914 59.434C20.9956 59.6164 19.9801 61.7578 18.9347 64.1928L17.034 68.6199L16.5726 68.3211C16.3189 68.1569 15.5972 67.6791 14.9689 67.2595C13.6166 66.3567 12.89 66.2689 12.2302 66.9289C11.7422 67.4167 11.6656 68.166 12.0478 68.7116C12.1853 68.9077 13.3962 69.7968 14.7388 70.6875C17.33 72.4059 17.9912 72.6273 18.6296 71.9889C19.049 71.5695 23.5936 60.9604 23.5936 60.4008C23.5936 59.3407 21.9859 58.6937 21.1914 59.434ZM30.3718 65.1155C29.4614 65.6134 29.288 66.7493 30.0117 67.4729L30.4438 67.9051H38.3823H46.3208L46.7528 67.4729C47.4794 66.7465 47.2903 65.6123 46.3604 65.1169C45.8355 64.8375 30.8825 64.8361 30.3718 65.1155Z" fill="url(#paint0_linear_28_348)"/>
<defs>
<linearGradient id="paint0_linear_28_348" x1="15.3452" y1="-33.1132" x2="75.3473" y2="-16.7816" gradientUnits="userSpaceOnUse">
<stop stop-color="#2388FF"/>
<stop offset="1" stop-color="#DC3097"/>
</linearGradient>
</defs>
</svg>
