<svg width="52" height="90" viewBox="0 0 52 90" fill="none" xmlns="http://www.w3.org/2000/svg">
<path fill-rule="evenodd" clip-rule="evenodd" d="M12.8089 0.246649C11.393 0.678183 9.84078 2.07064 9.10443 3.57049L8.40551 4.99376L8.33604 17.3575L8.26632 29.7213L6.31756 29.9824C3.1591 30.4051 0.946883 32.2261 0.193656 35.0233C0.0109148 35.7016 -0.0407032 39.3704 0.031219 46.5595C0.151334 58.5651 0.321109 59.9451 2.14387 63.744C3.74255 67.0754 5.98487 69.1303 9.62868 70.6028L11.5858 71.3937L11.7081 80.3517C11.8243 88.8608 11.8541 89.3273 12.3052 89.6568C12.9924 90.159 14.0069 90.083 14.5446 89.4892C14.9835 89.0044 15.0143 88.4256 15.0728 79.5204C15.12 72.3211 15.0615 69.9242 14.8281 69.4701C14.6026 69.032 13.901 68.6396 12.1809 67.9906C10.8939 67.505 9.33439 66.8107 8.71546 66.4482C6.54752 65.1775 5.07385 62.9047 4.0821 59.3024C3.57204 57.4498 3.53877 56.7705 3.45609 46.5815C3.37389 36.4319 3.39493 35.7699 3.82671 34.9802C4.70617 33.372 5.25806 33.2489 11.5818 33.2494C17.8865 33.2497 18.4198 33.3639 19.4703 34.9364C20.4405 36.3888 19.9923 38.4555 18.5113 39.3584C17.7901 39.7983 17.2816 39.8523 13.8645 39.8531C9.77302 39.8541 8.97062 40.0052 8.51266 40.8607C7.86022 42.08 9.55676 46.3523 11.5921 48.6163C12.6947 49.8427 14.5314 51.1654 17.7547 53.0545C19.7179 54.205 21.738 55.8763 21.738 56.3497C21.738 56.8779 22.5992 57.4677 23.3707 57.4677C24.7453 57.4677 25.3351 56.0478 24.5726 54.5734C23.8328 53.1428 21.3554 51.1904 17.4163 48.9336C16.452 48.3812 15.1574 47.4235 14.5395 46.8056C13.4846 45.7507 12.0276 43.6106 12.2289 43.4115C12.2788 43.3621 13.6519 43.2845 15.2805 43.239L18.2412 43.1566L18.5233 44.5234C19.4267 48.9038 24.019 51.1666 27.9657 49.1758L29.3696 48.4678L30.2464 49.4383C31.448 50.7686 32.795 51.4022 34.7129 51.54C36.7943 51.6894 38.4145 51.0252 39.9358 49.3987C41.8486 47.3538 41.798 47.9086 41.798 29.0337C41.798 10.7109 41.7354 11.4658 43.3389 10.4882C44.9193 9.52438 47.209 10.1215 48.0313 11.7119C48.3764 12.379 48.41 14.9408 48.3485 35.8802L48.2798 59.3024L47.7286 60.7507C46.5639 63.8118 44.9797 65.7368 42.083 67.6107C41.1507 68.2137 40.3197 68.8845 40.2367 69.101C40.1536 69.3175 40.0856 73.8892 40.0856 79.2601C40.0856 88.6993 40.1019 89.0418 40.5748 89.5147C41.2789 90.2187 42.3832 90.148 43.0033 89.3593C43.4955 88.7338 43.5104 88.4491 43.5104 79.7374V70.7601L45.284 69.4195C48.3138 67.1295 50.3484 64.0902 51.2819 60.4605C51.6694 58.9538 51.7057 56.7976 51.7057 35.206C51.7057 8.86876 51.8363 10.8576 49.9724 8.79488C48.523 7.19033 47.4089 6.71476 45.1005 6.71476C42.7733 6.71476 41.706 7.17834 40.1521 8.86411C38.5965 10.5516 38.3731 11.6365 38.3731 17.5019V22.4601L37.4557 22.0685C35.9246 21.415 33.8332 21.5163 32.1885 22.3236L30.7743 23.0176L29.7833 21.9965C29.2383 21.4349 28.3334 20.767 27.7727 20.5123C26.5162 19.9419 23.8769 19.8856 22.6393 20.4027L21.7684 20.7665L21.6921 12.7579C21.6187 5.04783 21.5957 4.71146 21.077 3.74222C19.7015 1.17087 17.7889 -0.0354149 15.1461 0.000790887C14.2642 0.0130226 13.2126 0.123598 12.8089 0.246649ZM16.1805 3.4944C16.6135 3.67886 17.2429 4.12801 17.5793 4.49251L18.1909 5.15522L18.2586 17.646L18.3261 30.137L17.1847 29.9806C16.5569 29.8945 15.0679 29.8241 13.8755 29.8241H11.7081V17.7509V5.67776L12.2634 4.84649C12.829 3.99981 14.1698 3.15999 14.9573 3.1595C15.197 3.15926 15.7475 3.30995 16.1805 3.4944ZM26.2104 23.5544C26.6434 23.7388 27.2729 24.188 27.6092 24.5525L28.2208 25.2149L28.2857 34.6752C28.3478 43.7171 28.3294 44.1696 27.8693 44.917C27.1919 46.0171 26.2799 46.5406 25.0406 46.5406C22.0805 46.5406 20.7314 43.0575 22.4438 39.8364C22.832 39.106 23.2237 38.0885 23.3142 37.5753C23.5363 36.3144 23.0666 34.2064 22.3173 33.1024C21.7214 32.2242 21.7055 32.0935 21.7818 28.7056C21.8567 25.3739 21.8885 25.1836 22.4719 24.5522C23.1232 23.8477 24.2695 23.2444 24.9873 23.2285C25.227 23.2234 25.7774 23.3699 26.2104 23.5544ZM36.6455 25.3783C38.3562 26.296 38.3731 26.4063 38.3721 36.6699C38.3714 45.3353 38.3447 45.8911 37.8946 46.6294C37.2185 47.7384 36.3728 48.2124 35.0706 48.2124C33.7684 48.2124 32.9227 47.7384 32.2465 46.6294C31.7964 45.8911 31.7697 45.3353 31.769 36.6699C31.768 28.2477 31.8047 27.4237 32.215 26.659C32.7304 25.6981 33.9976 24.9314 35.0706 24.9314C35.4784 24.9314 36.1871 25.1325 36.6455 25.3783Z" fill="url(#paint0_linear_28_349)"/>
<defs>
<linearGradient id="paint0_linear_28_349" x1="12.8026" y1="-33.1132" x2="63.9347" y2="-21.5019" gradientUnits="userSpaceOnUse">
<stop stop-color="#2388FF"/>
<stop offset="1" stop-color="#DC3097"/>
</linearGradient>
</defs>
</svg>
