<svg width="22" height="28" viewBox="0 0 22 28" fill="none" xmlns="http://www.w3.org/2000/svg">
<path d="M21.0656 12.6628C20.459 11.2974 19.577 10.0718 18.475 9.06285L17.5656 8.22847C17.5347 8.20092 17.4976 8.18137 17.4574 8.17153C17.4172 8.16169 17.3752 8.16187 17.3351 8.17205C17.295 8.18223 17.258 8.20211 17.2273 8.22992C17.1967 8.25774 17.1734 8.29265 17.1594 8.3316L16.7531 9.49722C16.5 10.2285 16.0344 10.9753 15.375 11.7097C15.3313 11.7566 15.2813 11.7691 15.2469 11.7722C15.2125 11.7753 15.1594 11.7691 15.1125 11.7253C15.0687 11.6878 15.0469 11.6316 15.05 11.5753C15.1656 9.6941 14.6031 7.57222 13.3719 5.26285C12.3531 3.3441 10.9375 1.84723 9.16875 0.803478L7.87813 0.0441036C7.70938 -0.0558964 7.49375 0.0753534 7.50313 0.272228L7.57187 1.77223C7.61875 2.79723 7.5 3.70348 7.21875 4.4566C6.875 5.37847 6.38125 6.23472 5.75 7.00347C5.3107 7.53773 4.81278 8.02097 4.26562 8.4441C2.94783 9.45711 1.87629 10.7551 1.13125 12.241C0.388043 13.7398 0.000906753 15.3899 0 17.0628C0 18.5378 0.290625 19.966 0.865625 21.3128C1.42083 22.6096 2.22206 23.7865 3.225 24.7785C4.2375 25.7785 5.4125 26.566 6.72188 27.1128C8.07812 27.6816 9.51562 27.9691 11 27.9691C12.4844 27.9691 13.9219 27.6816 15.2781 27.116C16.5843 26.5723 17.772 25.7794 18.775 24.7816C19.7875 23.7816 20.5812 22.6128 21.1344 21.316C21.7085 19.9728 22.003 18.5267 22 17.066C22 15.541 21.6875 14.0597 21.0656 12.6628ZM17.2812 23.266C15.6031 24.9285 13.375 25.841 11 25.841C8.625 25.841 6.39687 24.9285 4.71875 23.266C3.04688 21.6066 2.125 19.4066 2.125 17.066C2.125 15.7066 2.43125 14.4035 3.03438 13.191C3.62188 12.0066 4.49687 10.9472 5.55937 10.1316C6.23699 9.61345 6.8516 9.01772 7.39062 8.3566C8.17188 7.40347 8.78438 6.34097 9.20938 5.20035C9.38371 4.72984 9.51038 4.24303 9.5875 3.74723C10.3406 4.44097 10.9719 5.27847 11.5 6.25972C12.5437 8.21597 13.025 9.9566 12.9312 11.4378C12.9089 11.7867 12.9658 12.1361 13.0979 12.4598C13.23 12.7835 13.4337 13.073 13.6938 13.3066C13.9191 13.5102 14.1827 13.6669 14.4692 13.7678C14.7556 13.8687 15.0593 13.9116 15.3625 13.8941C15.9781 13.8628 16.5437 13.591 16.9562 13.1316C17.3719 12.666 17.7313 12.191 18.0312 11.7066C18.4688 12.266 18.8344 12.8753 19.125 13.5316C19.6219 14.6503 19.875 15.841 19.875 17.066C19.875 19.4066 18.9531 21.6097 17.2812 23.266Z" fill="#DC3097"/>
</svg>
