<svg width="31" height="32" viewBox="0 0 31 32" fill="none" xmlns="http://www.w3.org/2000/svg">
<path d="M19.62 15.948C20.316 16.176 20.868 16.56 21.276 17.1C21.684 17.628 21.888 18.288 21.888 19.08C21.888 20.172 21.468 21.018 20.628 21.618C19.788 22.206 18.564 22.5 16.956 22.5H10.692V9.9H16.596C18.084 9.9 19.23 10.194 20.034 10.782C20.838 11.358 21.24 12.156 21.24 13.176C21.24 13.8 21.096 14.352 20.808 14.832C20.52 15.312 20.124 15.684 19.62 15.948ZM13.032 11.736V15.21H16.344C17.16 15.21 17.784 15.066 18.216 14.778C18.66 14.478 18.882 14.046 18.882 13.482C18.882 12.906 18.66 12.474 18.216 12.186C17.784 11.886 17.16 11.736 16.344 11.736H13.032ZM16.812 20.664C18.624 20.664 19.53 20.058 19.53 18.846C19.53 17.634 18.624 17.028 16.812 17.028H13.032V20.664H16.812Z" fill="#2388FF"/>
<circle cx="15.5" cy="16" r="14.5" stroke="#2388FF" stroke-width="2"/>
</svg>
