<svg width="120" height="26" viewBox="0 0 120 26" fill="none" xmlns="http://www.w3.org/2000/svg">
<path fill-rule="evenodd" clip-rule="evenodd" d="M11.5929 0.0530878C7.18593 0.605859 3.44994 3.14917 1.46392 6.94819C0.407503 8.96912 0 10.6588 0 13.0183C0 15.857 0.65313 17.9819 2.26279 20.3799C3.34209 21.9879 5.28553 23.6924 7.04732 24.5764C12.0182 27.0704 18.0283 26.2329 22.0042 22.4924C24.8386 19.8256 26.3064 16.2604 26.1379 12.4516C26.0776 11.0904 25.9037 10.1695 25.4515 8.81615C23.9732 4.39221 20.038 1.00678 15.4279 0.193005C14.406 0.012632 12.4768 -0.0577462 11.5929 0.0530878ZM71.2864 0.0545793C67.7071 0.352591 64.2023 1.41125 61.5709 2.98921C59.7234 4.09718 57.7712 5.86493 56.8053 7.30437C56.1645 8.25937 55.5523 9.59357 55.2679 10.6547C55.0547 11.4502 55.0237 11.7498 55.0237 13.0109C55.0237 14.2695 55.055 14.5723 55.2662 15.3605C56.742 20.8655 62.7978 25.013 70.6213 25.8768C71.9358 26.0219 74.9764 25.9951 76.3357 25.8264C83.0317 24.9954 88.4709 21.6927 90.6078 17.1604C90.8019 16.7489 91.0771 16.0349 91.2195 15.5739C91.4603 14.7946 91.4788 14.617 91.4837 13.0575C91.4883 11.5708 91.4636 11.2894 91.2676 10.5873C90.9868 9.58164 90.197 7.93582 89.5901 7.09165C86.9987 3.48745 82.143 0.933048 76.4804 0.195242C75.0927 0.0144963 72.5847 -0.0534582 71.2864 0.0545793ZM32.6581 0.623664C31.6777 0.785953 30.8784 1.37424 30.4314 2.26268C30.1946 2.73352 30.1594 2.90653 30.1606 3.59605C30.1617 4.2411 30.2039 4.47424 30.3877 4.85055C30.6735 5.43567 31.1801 5.9409 31.8139 6.27284L32.3095 6.53236L37.031 6.55892C40.806 6.58027 41.7434 6.60935 41.7067 6.70415C41.6816 6.7694 38.6993 10.7133 35.0794 15.4682C31.4595 20.2233 28.4569 24.2303 28.407 24.3726C28.2921 24.7004 28.4238 25.0678 28.7273 25.2654C28.9286 25.3965 30.0921 25.4091 39.9624 25.3868L50.973 25.362L51.4686 25.1025C52.0993 24.7721 52.6136 24.2609 52.9029 23.6769C53.0893 23.3004 53.1301 23.0757 53.1301 22.4257C53.1301 21.7479 53.0924 21.557 52.8694 21.1057C52.5567 20.4729 52.027 19.9748 51.3125 19.6418L50.7855 19.3962L45.2892 19.3496L39.7928 19.303L46.485 10.5086C51.1266 4.40889 53.177 1.6441 53.177 1.48526C53.177 1.07147 52.9222 0.722473 52.5438 0.617978C52.1068 0.497356 33.389 0.502762 32.6581 0.623664ZM116.517 0.622266C115.572 0.742235 114.697 1.40659 114.214 2.37156L113.998 2.80371L113.971 8.28016C113.957 11.2922 113.924 13.7566 113.899 13.7566C113.873 13.7566 110.109 10.7993 105.534 7.18487C97.5711 0.893991 97.1991 0.61313 96.8305 0.61313C96.5378 0.61313 96.3908 0.670831 96.218 0.853721L95.9906 1.09431V12.063V23.0316L96.2533 23.5909C96.5951 24.3187 97.1444 24.8669 97.8449 25.1794C98.3441 25.4021 98.4947 25.4261 99.1701 25.3909C99.7862 25.3588 100.028 25.2993 100.433 25.08C101.07 24.7357 101.605 24.1321 101.849 23.4846C102.033 22.9968 102.04 22.7791 102.04 17.6215C102.04 14.6755 102.072 12.2651 102.11 12.2651C102.149 12.2651 105.768 15.1017 110.153 18.5685C114.537 22.0354 118.289 24.9927 118.49 25.1403C118.95 25.4774 119.376 25.4922 119.737 25.1836L120 24.9587V13.9258V2.89292L119.69 2.26818C119.379 1.64 118.917 1.17261 118.299 0.860712C117.893 0.65601 117.094 0.549091 116.517 0.622266ZM14.2667 6.15623C18.8536 6.95304 21.3849 11.8458 19.3804 16.0404C18.1277 18.6616 15.083 20.304 12.2047 19.9109C9.84028 19.588 7.94204 18.2624 6.84605 16.1687C6.31372 15.1517 6.09613 14.2354 6.09613 13.0109C6.09613 10.2932 7.56792 7.93172 9.98828 6.76614C11.4309 6.0714 12.7203 5.88758 14.2667 6.15623ZM75.0428 6.11698C78.7695 6.49059 81.926 7.79814 83.8925 9.78299C85.0299 10.9309 85.6326 12.2621 85.4921 13.3154C85.1877 15.5959 82.7772 17.766 79.1572 19.0184C74.6211 20.5877 68.8201 20.1476 64.9461 17.9403C63.8439 17.3123 63.1899 16.8049 62.4268 15.9857C60.5299 13.9493 60.6126 11.7967 62.6665 9.75185C65.3076 7.12213 70.3361 5.64522 75.0428 6.11698Z" fill="white"/>
</svg>
