<svg width="223" height="30" viewBox="0 0 223 30" fill="none" xmlns="http://www.w3.org/2000/svg">
<circle cx="108.5" cy="14.5" r="14.5" fill="#F3CF46"/>
<path fill-rule="evenodd" clip-rule="evenodd" d="M5.99331 4.28481C2.12005 5.2483 0.336211 7.37223 0.334114 11.023C0.332316 13.6346 0.90216 14.8868 3.01975 16.9256L4.59836 18.4455L2.41426 21.6471C1.21315 23.408 0.137275 24.999 0.0231263 25.1828C-0.121582 25.4165 0.406918 25.5172 1.7752 25.5172H3.73431L5.86598 22.428C7.03863 20.7291 8.25831 18.9288 8.57649 18.4276L9.15473 17.5164L7.08177 15.9833C5.86838 15.0865 4.80898 14.0306 4.52706 13.4386C3.99466 12.3194 3.894 10.1157 4.32363 8.98841C4.79041 7.76402 6.40976 6.98851 8.50039 6.98851H10.3376V16.2529V25.5172H12.1352H13.9328V14.7586V4L10.4125 4.03048C8.47612 4.04752 6.48766 4.16168 5.99331 4.28481ZM130.914 4.37536C130.835 4.58186 130.806 9.38977 130.849 15.0593L130.928 25.3678L132.351 25.459L133.774 25.5501V17.7038C133.774 12.863 133.881 9.96625 134.053 10.1414C134.206 10.2974 134.677 11.7701 135.1 13.4138C135.522 15.0575 136.274 17.8816 136.77 19.6897C137.266 21.4977 137.823 23.5484 138.006 24.2471L138.339 25.5172H139.894H141.449L142.263 22.454C142.711 20.7694 143.547 17.7098 144.121 15.6552C144.695 13.6006 145.248 11.4823 145.351 10.9483C145.831 8.44301 146.058 10.6204 146.058 17.7471V25.5172H147.706H149.353V14.7586V4H146.994H144.635L143.083 9.60345C140.694 18.2301 140.295 19.5402 140.059 19.5402C139.939 19.5402 139.754 19.103 139.649 18.569C139.543 18.0349 138.627 14.5381 137.614 10.7989L135.772 4H133.415C131.8 4 131.013 4.11805 130.914 4.37536ZM51.574 10.116C48.8671 11.0786 47.4032 13.7321 47.3637 17.7471C47.3328 20.8797 47.9542 22.6668 49.5861 24.1374C50.2261 24.7142 51.3268 25.3412 52.0318 25.5304C53.6835 25.9742 57.208 25.7659 58.6485 25.1398C59.7331 24.6682 59.772 24.5992 59.772 23.1465V21.6417L58.6353 22.2329C58.0101 22.558 56.6954 22.9005 55.7142 22.9937C53.4016 23.214 52.0309 22.567 51.429 20.9711C50.6887 19.0074 50.8259 18.9425 55.7064 18.9425H60.0489L59.9425 16.7759C59.8841 15.584 59.6732 14.0775 59.4736 13.4278C58.5527 10.4268 54.949 8.91579 51.574 10.116ZM80.6346 9.96685C78.9418 10.5108 77.4738 11.809 76.6484 13.4915C75.9497 14.9158 75.8415 15.506 75.8415 17.8966C75.8415 20.3029 75.9476 20.8728 76.6673 22.3405C77.7848 24.6183 79.3574 25.5567 82.3828 25.7503C83.6618 25.8322 85.0058 25.7417 85.6467 25.5307C86.7037 25.1828 86.7363 25.1278 86.7363 23.7008C86.7363 22.8918 86.6854 22.2299 86.6231 22.2299C86.5607 22.2299 86.0259 22.4316 85.4342 22.6782C83.2762 23.5777 81.1589 23.0003 80.2604 21.267C79.6168 20.0256 79.3888 17.0332 79.8176 15.4528C80.0237 14.6941 80.53 13.8911 81.1095 13.4045C81.9678 12.684 82.2423 12.6183 83.8751 12.7414C84.8722 12.8164 85.9238 12.9793 86.212 13.103C86.6716 13.3005 86.7363 13.1436 86.7363 11.8341C86.7363 10.6886 86.6141 10.2917 86.212 10.1342C85.3294 9.78784 81.5451 9.67428 80.6346 9.96685ZM155.945 10.0756C153.301 10.6814 152.949 10.9737 152.949 12.5597C152.949 13.7446 153.018 13.897 153.473 13.7088C154.971 13.0874 156.781 12.6667 157.953 12.6667C159.597 12.6667 160.83 13.7153 160.683 14.9884C160.592 15.7729 160.501 15.8133 158.351 16.0272C154.319 16.428 152.702 17.3664 152.052 19.6816C151.049 23.2543 153.908 26.3208 157.674 25.7112C158.277 25.6138 159.141 25.2611 159.593 24.9279C160.615 24.1742 160.738 24.1733 160.738 24.9195C160.738 25.4509 160.938 25.5172 162.536 25.5172H164.333L164.332 19.9138C164.33 12.8107 163.993 11.4859 161.918 10.4157C160.759 9.81772 157.805 9.64947 155.945 10.0756ZM173.503 9.98837C173.026 10.1309 172.252 10.6139 171.783 11.0618L170.931 11.8759L170.74 10.9265C170.555 10.0012 170.51 9.97701 168.94 9.97701H167.33V19.9885V30H169.127H170.925V27.0097V24.0191L172.198 24.9443C173.356 25.7856 173.638 25.8591 175.308 25.7563C177.569 25.6168 178.927 24.6984 179.957 22.6115C180.936 20.6286 181.122 16.0556 180.316 13.8017C179.169 10.5959 176.49 9.09689 173.503 9.98837ZM201.081 10.1142C198.871 10.9005 197.616 12.6613 196.984 15.8647C196.587 17.8765 196.94 20.9879 197.741 22.5323C198.383 23.7702 200.141 25.1559 201.555 25.5394C203.2 25.9849 207.097 25.7279 208.329 25.0926C209.176 24.656 209.274 24.4662 209.274 23.2681C209.274 21.796 209.171 21.7296 207.886 22.3692C206.45 23.084 203.887 23.2621 202.622 22.7346C201.426 22.2362 200.489 20.8202 200.642 19.744C200.733 19.1114 200.869 19.0896 205.197 19.0089L209.658 18.9261L209.494 16.6181C209.319 14.1526 208.55 11.9742 207.535 11.0693C206.086 9.77648 203.222 9.35271 201.081 10.1142ZM17.2284 17.7471V25.5172H19.0159H20.8033L20.8884 22.3046L20.9735 19.092L23.4452 19.0053L25.9169 18.9183V22.2179V25.5172H27.7145H29.5121V17.7471V9.97701H27.7145H25.9169V13.1149V16.2529H23.3703H20.8237V13.1149V9.97701H19.026H17.2284V17.7471ZM34.0062 11.9312C34.0062 14.8175 33.4304 19.458 32.859 21.1743C32.4911 22.2795 32.19 22.7021 31.7229 22.7687C31.1228 22.8539 31.0869 23.0323 31.074 25.9814L31.0605 29.1034H32.8329H34.6054V27.302V25.5005L38.7249 25.5836L42.8445 25.6667L42.9344 27.3851L43.0242 29.1034H44.6571H46.2899V25.9852V22.8673L45.466 22.7726L44.6421 22.6782L44.5612 16.3276L44.4803 9.97701H39.2432H34.0062V11.9312ZM62.6033 10.3563C62.5233 10.5648 62.4936 14.0276 62.538 18.0517L62.6183 25.3678L64.341 25.4575L66.0637 25.5471V21.946C66.0637 19.8373 66.1833 18.3448 66.3522 18.3448C66.5107 18.3448 67.2082 19.1855 67.9018 20.2126C68.5954 21.2401 69.7542 22.8539 70.4769 23.7988L71.7912 25.5172H73.721C74.7825 25.5172 75.651 25.4357 75.651 25.3361C75.651 25.2366 75.2714 24.6649 74.8073 24.066C74.3435 23.4671 73.054 21.6627 71.9416 20.056L69.9193 17.1354L72.2814 13.9296C73.5804 12.1667 74.7432 10.5562 74.8651 10.3506C75.0326 10.0688 74.6464 9.97701 73.2898 9.97701H71.4922L69.0082 13.4138C67.642 15.304 66.4205 16.8506 66.2938 16.8506C66.1674 16.8506 66.0637 15.304 66.0637 13.4138V9.97701H64.4066C63.3439 9.97701 62.6971 10.113 62.6033 10.3563ZM183.508 17.7471V25.5172H185.306H187.103V21.931C187.103 19.9586 187.19 18.3448 187.295 18.3448C187.538 18.3448 187.82 18.7142 190.432 22.454L192.571 25.5172H194.656H196.74L195.005 23.0517C194.05 21.6958 192.737 19.8197 192.087 18.8828L190.904 17.1793L193.233 13.961C194.514 12.1909 195.628 10.5702 195.708 10.3598C195.818 10.0765 195.418 9.97701 194.175 9.97701H192.494L190.772 12.3033C189.825 13.5829 188.714 15.1286 188.302 15.7383C187.89 16.3476 187.452 16.8473 187.328 16.8485C187.204 16.8497 187.103 15.304 187.103 13.4138V9.97701H185.306H183.508V17.7471ZM210.472 11.4713V12.9655H212.57H214.667V19.2414V25.5172H216.464H218.262V19.2545V12.9918L220.434 12.904L222.606 12.8161L222.698 11.3966L222.789 9.97701H216.631H210.472V11.4713ZM55.5557 13.4541C55.9407 13.9422 56.1768 14.6806 56.1768 15.3967V16.5517H53.5906H51.0048L51.1692 15.327C51.3945 13.6532 52.3739 12.6667 53.8105 12.6667C54.6683 12.6667 55.0821 12.8534 55.5557 13.4541ZM175.958 13.2727C176.843 14.0952 177.067 15.0581 177.067 18.046C177.067 20.9347 176.515 22.2508 175.052 22.8554C172.3 23.9925 170.461 20.8964 171.058 16.13C171.351 13.7951 172.322 12.6667 174.041 12.6667C174.897 12.6667 175.516 12.8624 175.958 13.2727ZM205.058 13.4541C205.443 13.9422 205.679 14.6806 205.679 15.3967V16.5517H203.093H200.507L200.671 15.327C200.896 13.6532 201.876 12.6667 203.312 12.6667C204.17 12.6667 204.584 12.8534 205.058 13.4541ZM40.8971 17.8966V22.8276H38.3154C35.778 22.8276 35.7373 22.8159 35.9362 22.1552C36.3338 20.8331 36.998 16.0754 37.0001 14.5345L37.0022 12.9655H38.9496H40.8971V17.8966ZM160.677 20.0545C160.758 21.7147 160.698 21.9194 159.962 22.4965C159.171 23.1172 157.684 23.315 156.685 22.9322C156.018 22.677 155.401 21.1767 155.58 20.244C155.658 19.8367 156.064 19.2805 156.481 19.0074C157.169 18.5579 159.543 18.046 160.289 18.1864C160.454 18.2175 160.628 19.0582 160.677 20.0545Z" fill="black"/>
<path d="M105.09 14.9361C105.173 15.0189 106.972 12.6595 109.087 9.69281C111.203 6.72612 112.971 4.29886 113.015 4.29886C113.259 4.29886 118.494 6.473 118.494 6.57401C118.494 6.64035 118.155 8.12594 117.741 9.87541C117.326 11.6249 117.048 13.1167 117.122 13.1909C117.196 13.265 118.213 12.5047 119.381 11.5018C120.55 10.4988 121.631 9.67817 121.786 9.67817C122.206 9.67817 122.988 12.5845 122.986 14.1406C122.984 15.5034 122.978 15.5114 119.509 18.6255C117.598 20.3415 115.698 22.0087 115.288 22.3306L114.542 22.9158L112.474 21.9173C111.219 21.3121 110.407 20.7359 110.41 20.4538C110.413 20.198 110.68 18.9799 111.004 17.7471C111.328 16.5144 111.595 15.304 111.598 15.0575C111.6 14.8109 109.985 17.0299 108.009 19.9882C106.032 22.9465 104.272 25.4147 104.097 25.4727C103.606 25.6362 98.7193 23.656 98.7262 23.2962C98.7295 23.1208 99.0525 21.7332 99.4438 20.2127C99.8351 18.6921 100.105 17.4483 100.044 17.4483C99.9831 17.4483 99.1717 18.4569 98.2418 19.6897C97.3115 20.9224 96.4486 21.931 96.324 21.931C95.9546 21.931 94.829 19.0624 94.6567 17.6814C94.4865 16.3183 94.4473 16.3748 100.59 9.11484L101.412 8.14387L103.393 9.11693C104.482 9.65187 105.442 10.2675 105.526 10.4848C105.609 10.7023 105.512 11.7588 105.308 12.8328C105.105 13.9069 105.007 14.8534 105.09 14.9361Z" fill="black"/>
</svg>
