<svg fill="none" xmlns="http://www.w3.org/2000/svg" viewBox="0 0 155 35">
    <path
        d="m19.972 28.283-1.28 6.452h-1.217l-2.388-4.037-.805 4.037h-1.464l1.281-6.452h1.226l2.388 4.046.796-4.046h1.463ZM33.746 34.845c-.805 0-1.437-.2-1.894-.599-.457-.405-.686-.958-.686-1.659 0-.203.024-.433.073-.691l.714-3.613h1.491l-.714 3.585a3.108 3.108 0 0 0-.055.544c0 .387.104.68.312.876.213.19.521.285.923.285.452 0 .812-.135 1.08-.405s.464-.704.585-1.3l.714-3.585h1.455l-.723 3.678c-.39 1.922-1.482 2.884-3.275 2.884ZM50.71 29.5h-2.05l.247-1.217h5.58L54.24 29.5H52.2l-1.042 5.235h-1.482l1.033-5.235ZM70.92 30.283c0 .602-.162 1.118-.485 1.548-.323.43-.771.735-1.345.913l1.117 1.99h-1.565l-1.006-1.806h-1.263l-.357 1.807h-1.49l1.28-6.452h2.607c.793 0 1.41.175 1.848.526.44.35.66.841.66 1.474Zm-3.055 1.456c.494 0 .875-.114 1.143-.34.275-.228.412-.554.412-.977 0-.308-.104-.538-.311-.692-.208-.154-.503-.23-.888-.23h-1.17l-.449 2.24h1.263ZM83.054 28.283h1.491l-1.28 6.452h-1.492l1.281-6.452ZM97.657 29.5h-2.05l.247-1.217h5.581l-.247 1.217h-2.04l-1.043 5.235h-1.482l1.034-5.235ZM112.753 28.283h1.492l-1.281 6.452h-1.491l1.28-6.452ZM128.315 34.845c-.64 0-1.195-.116-1.665-.35a2.52 2.52 0 0 1-1.08-.986c-.25-.424-.375-.913-.375-1.465 0-.731.165-1.389.494-1.973a3.643 3.643 0 0 1 1.4-1.391c.604-.338 1.293-.507 2.068-.507.64 0 1.195.117 1.665.35.469.233.829.562 1.079.986.25.424.375.913.375 1.465 0 .732-.168 1.392-.503 1.982a3.574 3.574 0 0 1-1.4 1.382c-.597.338-1.283.507-2.058.507Zm.128-1.272c.47 0 .881-.113 1.235-.34.354-.228.625-.532.814-.913.189-.38.284-.802.284-1.263 0-.491-.153-.881-.457-1.17-.305-.295-.736-.442-1.29-.442-.47 0-.882.113-1.236.34a2.261 2.261 0 0 0-.814.913 2.802 2.802 0 0 0-.283 1.263c0 .491.152.884.457 1.18.305.288.735.432 1.29.432ZM150.388 28.283l-1.28 6.452h-1.217l-2.388-4.037-.805 4.037h-1.464l1.281-6.452h1.226l2.388 4.046.796-4.046h1.463Z"
        fill="#000" />
    <path fill-rule="evenodd" clip-rule="evenodd"
        d="m5.597 34.735 11.55-17.953h5.44l-1.838 7.68h4.86l1.626-7.68H31.1l-1.525 7.68h9.825c2.342 0 4.419-.46 6.23-1.382 1.812-.922 3.22-2.23 4.227-3.926 1.025-1.696 1.537-3.668 1.537-5.917 0-1.659-.394-3.096-1.18-4.313-.769-1.235-1.876-2.175-3.321-2.82-1.446-.664-3.156-.995-5.132-.995h-8.344L31.9 12.75h-3.8L30.756.366h-8.482L.355 34.735h5.242ZM31.898 12.75h3.976l.668-3.84 10.7 5.81-12.77 6.094.7-4.032H31.1l.8-4.032Zm-12.157 0 5.868-9.12-2.096 9.12h-3.772ZM120.881 23.8c1.463.7 3.165 1.05 5.104 1.05 1.793 0 3.385-.276 4.776-.829 1.39-.571 2.607-1.493 3.65-2.765l-3.211-3.18c-1.299 1.494-2.863 2.24-4.693 2.24-1.446 0-2.589-.396-3.431-1.189-.842-.792-1.262-1.843-1.262-3.152 0-1.271.256-2.414.768-3.428.531-1.032 1.263-1.834 2.196-2.405.933-.59 2.012-.885 3.238-.885 1.885 0 3.294.756 4.227 2.267l3.925-3.152c-.677-1.161-1.702-2.055-3.074-2.682-1.373-.645-2.946-.967-4.721-.967-2.342 0-4.428.497-6.257 1.493-1.83.995-3.257 2.377-4.282 4.147-1.006 1.77-1.509 3.76-1.509 5.972 0 1.677.393 3.16 1.18 4.451.787 1.29 1.912 2.295 3.376 3.014Zm-57.755.663L75.174 5.11h-5.599l-7.849 12.58-2.744-12.58H53.41l4.364 19.353h5.352Zm14.342-3.76h8.178l.769 3.76h5.407L87.183 5.11h-5.352L69.51 24.462h5.736l2.223-3.76Zm6.065-10.313 1.29 6.277h-4.967l3.677-6.277Zm31.95-5.28-3.842 19.353h-4.474l-6.34-10.617-2.113 10.617H93.39L97.232 5.11h4.473l6.368 10.589 2.086-10.59h5.324Zm28.624 4.23-.631 3.262h8.535l-.796 4.092h-8.563l-.686 3.54h10.073l-.879 4.23h-15.396l3.842-19.354h15.04l-.851 4.23h-9.688Z"
        fill="#000" />
</svg>