<svg width="930" height="913" viewBox="0 0 930 913" fill="none" xmlns="http://www.w3.org/2000/svg">
<path d="M719.941 27.5521C775.394 -8.74764 870.57 -1.52704 911.227 6.62072C764.203 48.2838 740.146 115.598 723.214 192.054C706.282 268.51 712.003 402.992 709.612 473.953C707.222 544.915 675.919 705.86 549.637 825.387C423.355 944.914 264.819 914.497 193.744 892.737C122.669 870.977 51.3902 798.251 15.7277 736.746C-12.8024 687.542 3.90384 630.968 15.8232 608.832C21.9197 615.575 36.7772 630.03 47.4351 633.906C58.093 637.781 59.8249 628.426 59.3586 623.264C56.4571 606.447 51.533 566.001 55.0487 538.753C59.4433 504.693 74.7893 483.926 89.0281 467.723C100.419 454.761 126.526 454.802 138.155 456.443C133.778 460.322 123.925 473.936 119.533 497.362C115.14 520.788 130.865 529.008 139.277 530.19C143.005 513.048 156.955 471.382 182.931 441.85C215.402 404.936 263.589 389.56 288.355 391.059C308.167 392.257 329.847 417.456 338.211 429.905C315.068 432.346 263.29 448.977 241.323 495.981C213.864 554.736 260.914 615.782 321.385 641.414C381.856 667.046 478.085 626.269 534.748 541.408C591.412 456.548 557.267 307.756 593.639 209.593C630.011 111.429 650.625 72.9267 719.941 27.5521Z" fill="url(#paint0_linear_29_754)"/>
<path d="M809.834 112.53C834.477 74.6825 904.101 59.0304 930 63.3819C868.636 83.9387 846.748 135.667 826.75 186.243C806.752 236.818 822.954 382.544 817.499 471.453C813.135 542.58 744.408 650.616 691.088 703.095C753.959 604.595 764.613 466.353 761.923 341.953C759.234 217.552 779.03 159.838 809.834 112.53Z" fill="url(#paint1_linear_29_754)"/>
<path d="M196.573 307.234C159.975 338.054 154.362 402.906 156.131 431.479C160.671 407.445 194.977 372.265 216.195 355.178C237.414 338.091 247.715 323.512 251.82 313.229C255.925 302.946 242.322 268.708 196.573 307.234Z" fill="url(#paint2_linear_29_754)"/>
<defs>
<linearGradient id="paint0_linear_29_754" x1="888.189" y1="17.4969" x2="208.838" y2="947.073" gradientUnits="userSpaceOnUse">
<stop stop-color="#E3F3FF"/>
<stop offset="1" stop-color="#FFF3FB"/>
</linearGradient>
<linearGradient id="paint1_linear_29_754" x1="888.189" y1="17.4969" x2="208.838" y2="947.073" gradientUnits="userSpaceOnUse">
<stop stop-color="#E3F3FF"/>
<stop offset="1" stop-color="#FFF3FB"/>
</linearGradient>
<linearGradient id="paint2_linear_29_754" x1="888.189" y1="17.4969" x2="208.838" y2="947.073" gradientUnits="userSpaceOnUse">
<stop stop-color="#E3F3FF"/>
<stop offset="1" stop-color="#FFF3FB"/>
</linearGradient>
</defs>
</svg>
